# xmcd
#
# Track frame offsets:
#	150
#	20229
#	37742
#	85278
#	100668
#	134656
#	146102
#	169842
#	196024
#	210786
#	238425
#	265147
#	287444
#	320811
#	337575
#
# Disc length: 4805 seconds
#
# Revision: 3
# Processed by: cddbd v1.5.2PL0 Copyright (c) Steve Scherf et al.
# Submitted via: EZCDAudioConverter 6.0.0.1
#
DISCID=d412c30f
DTITLE=Various Artist - Akella Presents - Blues-Rock - vol.11  CD2 New!
DYEAR=2013
DGENRE=Blues
TTITLE0=SIR OLIVER MALLY - Wild Streak
TTITLE1=ROB TOGNONI - The Harder I Will Fall
TTITLE2=RICK DERRINGER - Somebody Loan Me a Dime
TTITLE3=GENOCIDE - Rock'n'Roll Outlaw
TTITLE4=JOE BONAMASSA - If Heartaches
TTITLE5=FIREBIRD - For Crying Out Loud
TTITLE6=MICHAEL KATON - Red Moon Risin'
TTITLE7=WES JEANS - Drownin' on Dry Land
TTITLE8=DAVE EVANS - Take Me Down Again
TTITLE9=JIMI BARBIANI BAND - I Feel So Lonely
TTITLE10=JIM SUHLER and MONKEY BEAT - Under The Gun
TTITLE11=JAY HOOKS - It Life Don't Kill You (Lovin' Will)
TTITLE12=CHRIS DUARTE - 32 Blues
TTITLE13=ERIC GALES - Black Day
TTITLE14=The HAMSTERS - Come Yo Poppa
EXTD=
EXTT0=
EXTT1=
EXTT2=
EXTT3=
EXTT4=
EXTT5=
EXTT6=
EXTT7=
EXTT8=
EXTT9=
EXTT10=
EXTT11=
EXTT12=
EXTT13=
EXTT14=
PLAYORDER=
